<?xml version="1.0" encoding="utf-8"?>
<!-- Generator: Adobe Illustrator 17.1.0, SVG Export Plug-In . SVG Version: 6.00 Build 0)  -->
<!DOCTYPE svg PUBLIC "-//W3C//DTD SVG 1.1//EN" "http://www.w3.org/Graphics/SVG/1.1/DTD/svg11.dtd">
<svg version="1.1" id="Layer_1" xmlns="http://www.w3.org/2000/svg" xmlns:xlink="http://www.w3.org/1999/xlink" x="0px" y="0px"
	 viewBox="0 0 186.7 48.5" enable-background="new 0 0 186.7 48.5" xml:space="preserve">
<g>
	<polygon fill="#FFFFFF" points="0.7,1.6 0.7,2.4 2.9,4.8 2.9,21.3 0,22.1 0,23 7.8,23 7.8,22.1 5.3,21.4 4.7,20.6 4.7,6.9 
		18.4,23.2 19.6,23.2 19.6,3.7 22.4,2.8 22.4,1.8 14.5,1.8 14.5,2.9 17.1,3.5 17.7,4.3 17.7,17.3 17.7,17.3 17.5,17.3 4.3,1.6 	"/>
	<path fill="#FFFFFF" d="M30,23.4c-3.9,0-7.5-2.5-7.5-7.7c0-5.2,3.9-7.9,7.5-7.9c3.8,0,7.6,2.4,7.6,7.6C37.6,20.4,33.5,23.4,30,23.4
		z M34.6,15.8c0-3.6-2-6.6-5-6.6c-2.8,0-4.1,2.4-4.1,6c0,3.6,1.7,6.7,5,6.7C33.2,21.9,34.6,19.4,34.6,15.8z"/>
	<path fill="#FFFFFF" d="M76.4,14.3c0-3.6-2-4.3-4.4-4.3c-2,0-3.3,1.5-3.3,1.5l0,2.4v6.9l0.6,0.8l2.1,0.7l0,0.8h-7.5v-0.8l2.1-0.8
		l0-15.5c0-2.8-0.7-3.6-2.2-3.6V1.6L68.5,0h0.3c0,0-0.2,3.3-0.2,5.8v4.5c0,0,3.1-2.5,5.2-2.5c2.6,0,5.1,1.1,5.1,5l0,8l0.6,0.8
		l2.1,0.7l0,0.8h-7.5v-0.8l2.1-0.8L76.4,14.3z"/>
	<path fill="#FFFFFF" d="M106.7,14.8c0,4.5,2.5,6.3,5.4,6.3c1.8,0,4-0.7,4-0.7l0.3,0.6c-0.8,0.8-2.9,2.4-5.6,2.4
		c-3.7,0-6.9-2.7-6.9-7.7c0-4.6,3.1-7.9,7.1-7.9c3.1,0,5.4,1.8,5.4,5.3c0,0.9-0.2,1.7-0.2,1.7H106.7z M111.4,13.6
		c1.5-0.1,2.1-0.4,2.1-1.9c0-1.3-1-2.4-3-2.4c-2.2,0-3.8,1.9-3.8,4.5L111.4,13.6z"/>
	<path fill="#FFFFFF" d="M119.9,22.8c-0.2-0.1-0.8-0.4-0.8-1.1l-0.2-3.1h1.4c0.4,2.1,1.8,3.4,3.6,3.4c1.9,0,2.6-1,2.6-2.2
		c0-1.2-1-1.9-2.2-2.5l-1.6-0.8c-2.3-1.2-3.5-2.2-3.5-4.5c0-2.9,2.1-4.3,5.3-4.3c2.3,0,4,0.9,4,0.9l-0.4,3.8h-1.3
		c0-2.3-1-3.2-2.9-3.2c-1.3,0-2.5,0.5-2.5,1.8c0,1,0.4,1.5,3,2.8l1.4,0.7c2.6,1.3,3.4,2.5,3.4,4.7c0,2.6-2.6,4.2-5.2,4.2
		C122.2,23.4,120.8,23.2,119.9,22.8z"/>
	<path fill="#FFFFFF" d="M145.1,14.8c0,4.5,2.5,6.3,5.4,6.3c1.8,0,4-0.7,4-0.7l0.3,0.6c-0.8,0.8-2.9,2.4-5.6,2.4
		c-3.7,0-6.9-2.7-6.9-7.7c0-4.6,3.1-7.9,7.1-7.9c3.1,0,5.4,1.8,5.4,5.3c0,0.9-0.2,1.7-0.2,1.7H145.1z M149.8,13.6
		c1.5-0.1,2.1-0.4,2.1-1.9c0-1.3-1-2.4-3-2.4c-2.2,0-3.8,1.9-3.8,4.5L149.8,13.6z"/>
	<path fill="#FFFFFF" d="M184.6,21.5l-0.6-0.8l0-8.1c0-3.8-2.4-4.8-4.9-4.8c-2.1,0-5.1,2.5-5.1,2.5c0-1.3,0.1-2.6,0.1-2.6h-0.3
		l-4.7,1.7v0.8c1.8,0,2.3,1.6,2.3,4.5v6.7l-2.1,0.8V23h7.4l0.1-0.8l-2.1-0.7l-0.6-0.8l0-9.2c0,0,1.1-1.5,3.1-1.5
		c2.1,0,4.2,0.7,4.2,4.3l-0.1,7.1l-2.1,0.8V23h7.4l0.1-0.8L184.6,21.5z"/>
	<path fill="#FFFFFF" d="M95.5,23.2l-3.4-9.5l-3.9,9.5h-1.3l-3.9-11.8C82.3,9.9,82,9.1,81,9.1V8.2h6.3v0.9l-1.9,0.6l2.9,9.8l2.5-6.1
		l0.6-1.5l-0.9-2.5l-1.1-0.3V8.2h6.1v1l-1.9,0.6l3.3,9.8l3.4-9.7L98.1,9V8.2h5.7v0.9c-1.3,0.2-2,0.5-3,3.1l-3.9,11H95.5z"/>
	<path fill="#FFFFFF" d="M62.1,20.8c0,0-0.9,0.6-2.2,0.6c-1.4,0-2.8-0.8-2.7-2.8l0.1-8.4H62l0,0h0l0.1-0.5h0L62.5,7l-0.6-0.1l-0.5,1
		l-0.3,0.2l-3.8,0.1v0l0,0V4.5l-1.9,0.3l-0.8,3.6L52,8.7v1.3c1.4,0,2.6,0.1,2.6,1.5c0,1.4-0.1,5.7-0.1,7.5c0,3.3,1.3,4.5,3.3,4.5
		c1.8,0,3.3-0.7,4.6-1.8L62.1,20.8z"/>
	<path fill="#FFFFFF" d="M140.8,20.8c0,0-0.9,0.6-2.2,0.6c-1.4,0-2.8-0.8-2.7-2.8l0.1-8.4h4.8l0,0h0l0.1-0.5h0l0.3-2.6l-0.6-0.1
		l-0.5,1l-0.3,0.2L136,8.3v0l0,0V4.5l-1.9,0.3l-0.8,3.6l-2.6,0.3v1.3c1.4,0,2.6,0.1,2.6,1.5c0,1.4-0.1,5.7-0.1,7.5
		c0,3.3,1.3,4.5,3.3,4.5c1.8,0,3.3-0.7,4.6-1.8L140.8,20.8z"/>
	<path fill="#FFFFFF" d="M50.2,8L50.2,8L50.2,8c0,0-0.6-0.2-1.6-0.2c-2.2,0-4.6,3.5-4.6,3.5c0-2,0.1-3.6,0.1-3.6h-0.3l-4.6,1.7v0.8
		c1.7,0,2.3,1.6,2.3,4.2v7l-2.1,0.8V23h7.4l0-0.8l-2.1-0.7l-0.6-0.8v-6.9c0-2.1,1.7-3.3,3.5-3.3c0.4,0,0.7,0.1,1.1,0.2l0.5,0.7
		l0.6,0.1L50.2,8L50.2,8L50.2,8z"/>
	<path fill="#FFFFFF" d="M167.7,8L167.7,8L167.7,8c0,0-0.6-0.2-1.6-0.2c-2.2,0-4.6,3.5-4.6,3.5c0-2,0.1-3.6,0.1-3.6h-0.3l-4.6,1.7
		v0.8c1.7,0,2.3,1.6,2.3,4.2v7l-2.1,0.8V23h7.4l0-0.8l-2.1-0.7l-0.6-0.8v-6.9c0-2.1,1.7-3.3,3.5-3.3c0.4,0,0.7,0.1,1.1,0.2l0.5,0.7
		l0.6,0.1L167.7,8L167.7,8L167.7,8z"/>
</g>
<g>
	<path fill="#FFFFFF" d="M0,30.4h186.7v1.1H0V30.4z"/>
</g>
<g>
	<g>
		<path fill="#FFFFFF" d="M7.4,47.7c-0.7,0.7-1.8,1-2.8,1c-1.2,0-2.2-0.3-2.8-1c-0.6-0.6-1.1-1.4-1.1-2.4H2c0,0.6,0.3,1.2,0.7,1.6
			c0.4,0.4,1.2,0.6,1.9,0.6c0.8,0,1.4-0.2,1.9-0.6C6.8,46.7,7,46.3,7,45.8c0-0.8-0.5-1.4-1.7-1.6L3.7,44c-1.5-0.2-2.7-1.1-2.7-2.6
			c0-0.7,0.3-1.5,0.9-2c0.7-0.6,1.6-1,2.6-1c1,0,1.9,0.3,2.6,1c0.6,0.6,0.9,1.3,1,2.1H6.8c0-0.5-0.2-0.9-0.5-1.2
			c-0.4-0.4-1-0.7-1.8-0.7c-0.7,0-1.3,0.2-1.8,0.7c-0.3,0.3-0.4,0.6-0.4,1.1c0,0.9,0.7,1.3,1.5,1.4C4.4,42.8,5,42.9,5.5,43
			c1.7,0.2,2.8,1.2,2.8,2.8C8.3,46.6,7.9,47.2,7.4,47.7z"/>
		<path fill="#FFFFFF" d="M13.4,39.7v8.8h-1.3v-8.8h-3v-1.2h7.2v1.2H13.4z"/>
		<path fill="#FFFFFF" d="M21.3,48.7c-2.2,0-3.6-1.3-3.6-3.8v-6.3h1.2v6.3c0,1.6,0.7,2.6,2.4,2.6s2.4-1.1,2.4-2.6v-6.3h1.2v6.3
			C24.9,47.3,23.5,48.7,21.3,48.7z"/>
		<path fill="#FFFFFF" d="M33.6,47.5c-0.7,0.7-1.6,1-2.6,1h-3.5v-10h3.5c1,0,1.9,0.3,2.6,1c1.1,1,1.3,2.5,1.3,4
			C34.8,45,34.6,46.5,33.6,47.5z M32.7,40.4c-0.5-0.5-1.1-0.7-1.8-0.7h-2.2v7.7h2.2c0.6,0,1.3-0.2,1.8-0.7c0.8-0.8,0.9-2.1,0.9-3.1
			C33.6,42.5,33.5,41.2,32.7,40.4z"/>
		<path fill="#FFFFFF" d="M37,48.5v-10h6.7v1.2h-5.4v3H43v1.2h-4.7v3.4h5.4v1.2H37z"/>
		<path fill="#FFFFFF" d="M51.9,48.5l-4.9-8v8h-1.2v-10h1.4l4.9,8v-8h1.2v10H51.9z"/>
		<path fill="#FFFFFF" d="M59.1,39.7v8.8h-1.3v-8.8h-3v-1.2H62v1.2H59.1z"/>
		<path fill="#FFFFFF" d="M72.8,48.5L72,46.2h-4.3l-0.8,2.4h-1.3l3.5-10h1.5l3.5,10H72.8z M69.8,39.8L68,45h3.5L69.8,39.8z"/>
		<path fill="#FFFFFF" d="M76.8,39.7V43h4.6v1.2h-4.6v4.4h-1.2v-10H82v1.2H76.8z"/>
		<path fill="#FFFFFF" d="M85.1,39.7V43h4.6v1.2h-4.6v4.4h-1.2v-10h6.4v1.2H85.1z"/>
		<path fill="#FFFFFF" d="M98,48.5l-0.8-2.4h-4.3L92,48.5h-1.3l3.5-10h1.5l3.5,10H98z M95,39.8L93.2,45h3.5L95,39.8z"/>
		<path fill="#FFFFFF" d="M100.8,48.5v-10h1.3v10H100.8z"/>
		<path fill="#FFFFFF" d="M110.8,48.5l-1.9-4.1h-2.8v4.1h-1.2v-10h3.9c1.2,0,2,0.3,2.5,0.9c0.5,0.5,0.8,1.2,0.8,2
			c0,0.9-0.3,1.5-0.8,2c-0.3,0.3-0.7,0.5-1.2,0.7l2,4.4H110.8z M108.8,39.7h-2.7v3.5h2.7c1.2,0,2-0.5,2-1.7
			C110.8,40.2,110,39.7,108.8,39.7z"/>
		<path fill="#FFFFFF" d="M120.1,47.7c-0.7,0.7-1.8,1-2.8,1c-1.2,0-2.2-0.3-2.8-1c-0.6-0.6-1.1-1.4-1.1-2.4h1.3
			c0,0.6,0.3,1.2,0.7,1.6c0.4,0.4,1.2,0.6,1.9,0.6c0.8,0,1.4-0.2,1.9-0.6c0.3-0.3,0.5-0.6,0.5-1.2c0-0.8-0.5-1.4-1.7-1.6l-1.6-0.2
			c-1.5-0.2-2.7-1.1-2.7-2.6c0-0.7,0.3-1.5,0.9-2c0.7-0.6,1.6-1,2.6-1c1,0,1.9,0.3,2.6,1c0.6,0.6,0.9,1.3,1,2.1h-1.3
			c0-0.5-0.2-0.9-0.5-1.2c-0.4-0.4-1-0.7-1.8-0.7c-0.7,0-1.3,0.2-1.8,0.7c-0.3,0.3-0.4,0.6-0.4,1.1c0,0.9,0.7,1.3,1.5,1.4
			c0.6,0.1,1.1,0.2,1.7,0.3c1.7,0.2,2.8,1.2,2.8,2.8C121,46.6,120.6,47.2,120.1,47.7z"/>
	</g>
</g>
<g>
</g>
<g>
</g>
<g>
</g>
<g>
</g>
<g>
</g>
<g>
</g>
</svg>
