<svg id="Capa_1" data-name="Capa 1" xmlns="http://www.w3.org/2000/svg" viewBox="0 0 457.03 457.03"><defs><style>.cls-1{fill:#fff;}</style></defs><title>link_angle</title><path class="cls-1" d="M421.51,207.07l-85.8,85.77a119.87,119.87,0,0,1-190-24.46l39.86-39.86c1.9-1.91,4.24-3,6.47-4.3a59.69,59.69,0,0,0,15,25.74,60.7,60.7,0,0,0,85.76,0l85.77-85.76a60.65,60.65,0,0,0-85.77-85.78l-30.5,30.53A152.18,152.18,0,0,0,185,100.52l65-65A121.31,121.31,0,0,1,421.51,207.07Zm-226.8,141-30.52,30.53a60.66,60.66,0,0,1-85.78-85.8l85.78-85.77a60.69,60.69,0,0,1,85.77,0,60,60,0,0,1,15,25.71c2.25-1.31,4.56-2.37,6.45-4.27l39.86-39.85a119.21,119.21,0,0,0-18.42-24.48,121.3,121.3,0,0,0-171.54,0L35.53,250A121.3,121.3,0,0,0,207.07,421.51l65-65A152.09,152.09,0,0,1,194.71,348.1Z" transform="translate(0 0)"/></svg>